#!OML:ASF I:\Actors\actors\Patient Classification 1\Patient 1\Session 1\Subject1.ASF
:FULLY-SPECIFIED
:DEGREES
759
root -0.378995 16.7257 7.09909 76.9518 -7.50837 -1.59259
lowerback 42.9127 5.20052 -3.79101
upperback 2.78538 7.09847 11.5912
thorax -20.3155 3.71075 11.7826
lowerneck -3.23753 -0.301547 4.89477
upperneck -15.693 -2.13236 -12.1606
head -4.26383 -0.82125 -4.54135
rclavicle -6.36111e-014 -1.31347e-013
rhumerus 47.283 8.76357 -67.8655
rradius 55.6052
rwrist -14.1604
rhand -9.63358 -31.0823
rfingers 7.12502
rthumb 16.3365 -780.414
lclavicle -6.36111e-014 -1.31347e-013
lhumerus -127.07 208.855 -102.716
lradius 53.8025
lwrist 29.1981
lhand -42.6196 -33.7715
lfingers 7.12502
lthumb -15.492 -4.3722
rfemur -88.8165 -1.85936 2.93875
rtibia 6.03024
rfoot -2.10245 -17.3317
rtoes 22.4884
lfemur -88.5238 9.14734 -8.51077
ltibia 10.9909
lfoot -12.7958 17.5573
ltoes 47.8362
760
root -0.394898 16.7489 7.0948 76.1375 -6.7501 -1.85774
lowerback 43.3244 4.75787 -3.78823
upperback 2.45178 6.5423 11.3615
thorax -20.7029 3.51121 11.8415
lowerneck -3.07791 0.216056 4.57449
upperneck -15.119 -1.34343 -12.3478
head -4.04503 -0.394744 -4.55698
rclavicle 3.06128e-014 9.45718e-014
rhumerus 44.0586 12.1617 -66.9863
rradius 62.0043
rwrist -15.4022
rhand -10.6842 -31.0209
rfingers 7.12502
rthumb 15.3247 -780.433
lclavicle 3.06128e-014 9.45718e-014
lhumerus -131.177 209.733 -103.961
lradius 60.9937
lwrist 29.6605
lhand -44.2923 -37.2986
lfingers 7.12502
lthumb -17.1026 -8.03131
rfemur -87.9595 -1.3481 4.44058
rtibia 6.04656
rfoot -2.15373 -16.6589
rtoes 22.869
lfemur -87.7969 9.19237 -7.70456
ltibia 11.1607
lfoot -12.6761 17.4643
ltoes 47.604
761
root -0.41427 16.7732 7.08909 75.4123 -6.03327 -2.11322
lowerback 43.5558 4.35594 -3.90234
upperback 2.17333 5.96835 11.1166
thorax -20.9633 3.31278 11.9573
lowerneck -3.05338 0.73737 4.31681
upperneck -14.6545 -0.563706 -12.4994
head -3.83956 0.016821 -4.57059
rclavicle 6.36111e-015 2.23136e-014
rhumerus 41.1784 15.4498 -66.602
rradius 68.3002
rwrist -15.2543
rhand -11.5142 -30.545
rfingers 7.12502
rthumb 14.5251 -780.016
lclavicle 6.36111e-015 2.23136e-014
lhumerus -135.349 210.297 -104.544
lradius 67.7127
lwrist 27.1045
lhand -45.2623 -38.0558
lfingers 7.12502
lthumb -18.036 -8.87206
rfemur -87.1515 -0.902389 5.90812
rtibia 6.01532
rfoot -2.20393 -16.0103
rtoes 22.9286
lfemur -87.206 9.28657 -6.94776
ltibia 11.4022
lfoot -12.5859 17.4969
ltoes 47.2662
762
root -0.433127 16.799 7.0872 74.6192 -5.29765 -2.32241
lowerback 43.9716 3.96376 -3.97235
upperback 1.83046 5.4217 10.8824
thorax -21.2483 3.12431 12.0886
lowerneck -3.2433 1.24446 3.76969
upperneck -14.0731 0.237164 -12.333
head -3.56935 0.427477 -4.42806
rclavicle 2.78299e-014 4.45278e-014
rhumerus 38.6627 18.7084 -66.4425
rradius 74.2765
rwrist -14.1698
rhand -12.0808 -29.6713
rfingers 7.12502
rthumb 13.9791 -779.181
lclavicle 2.78299e-014 4.45278e-014
lhumerus -139.342 210.897 -104.981
lradius 74.1395
lwrist 24.1399
lhand -47.0683 -40.5507
lfingers 7.12502
lthumb -19.7729 -11.5365
rfemur -86.1811 -0.518573 7.3881
rtibia 5.88416
rfoot -2.20872 -15.3712
rtoes 22.5382
lfemur -86.575 9.29097 -6.1813
ltibia 11.6798
lfoot -12.5804 17.573
ltoes 47.063
763
root -0.450093 16.8223 7.08458 73.6195 -4.95243 -2.43264
lowerback 44.4825 3.71516 -4.34385
upperback 1.59999 4.86883 10.5386
thorax -21.5561 2.95008 12.2106
lowerneck -3.8656 1.65069 2.68841
upperneck -13.0107 1.02338 -11.3824
head -3.11048 0.795743 -3.93573
rclavicle 2.46493e-014 1.90833e-014
rhumerus 36.4092 21.7809 -66.4885
rradius 80.0008
rwrist -12.921
rhand -12.8548 -29.2743
rfingers 7.12502
rthumb 13.2332 -778.834
lclavicle 2.46493e-014 1.90833e-014
lhumerus -143.093 211.491 -105.267
lradius 80.2061
lwrist 20.79
lhand -50.4094 -32.7031
lfingers 7.12502
lthumb -22.982 -4.05309
rfemur -85.0401 -0.305653 8.44551
rtibia 5.7657
rfoot -2.07542 -14.7553
rtoes 21.7944
lfemur -85.7281 9.10062 -5.81179
ltibia 11.9769
lfoot -12.6167 17.5313
ltoes 47.0284
764
root -0.466039 16.8411 7.07836 72.5094 -5.09046 -2.46534
lowerback 45.0591 3.57689 -5.12827
upperback 1.53326 4.14363 9.91027
thorax -21.5888 2.70583 12.2904
lowerneck -4.36103 2.23381 3.11729
upperneck -12.7346 1.8061 -11.9989
head -2.871 1.1764 -4.1959
rclavicle 1.59028e-015 -5.14852e-014
rhumerus 34.968 24.5681 -66.8888
rradius 85.3816
rwrist -11.7255
rhand -13.7975 -29.3106
rfingers 7.12502
rthumb 12.3243 -778.927
lclavicle 1.59028e-015 -5.14852e-014
lhumerus -146.169 211.599 -106.055
lradius 85.8182
lwrist 17.2093
lhand -49.2996 -44.72
lfingers 7.12502
lthumb -21.9168 -15.9414
rfemur -83.8715 -0.159892 9.002
rtibia 5.73571
rfoot -1.84332 -14.1019
rtoes 20.454
lfemur -84.6878 8.83171 -5.92183
ltibia 12.1751
lfoot -12.6206 17.5063
ltoes 46.9727
765
root -0.485506 16.8631 7.07892 71.8201 -4.3288 -2.71838
lowerback 45.2738 3.20573 -5.11296
upperback 1.4279 3.58532 9.47456
thorax -21.5741 2.46184 12.0642
lowerneck -4.79456 2.74828 3.39118
upperneck -12.3819 2.54637 -12.1394
head -2.62927 1.5246 -4.27526
rclavicle 1.35174e-014 4.77083e-015
rhumerus 34.0751 27.2356 -67.3355
rradius 90.1944
rwrist -10.6751
rhand -14.5896 -28.9703
rfingers 7.12502
rthumb 11.5606 -778.631
lclavicle 1.35174e-014 4.77083e-015
lhumerus -148.91 211.296 -106.986
lradius 90.8331
lwrist 13.3069
lhand -50.3456 -46.8352
lfingers 7.12502
lthumb -22.9208 -18.1776
rfemur -83.011 0.160794 10.5423
rtibia 5.75613
rfoot -1.78884 -13.3361
rtoes 19.4712
lfemur -84.208 8.88313 -5.1283
ltibia 12.525
lfoot -12.6829 17.5465
ltoes 46.9649
766
root -0.505179 16.886 7.08419 71.2974 -3.03291 -3.07112
lowerback 45.3927 2.79327 -4.59342
upperback 1.29112 3.29051 9.25222
thorax -21.6526 2.2896 11.6741
lowerneck -4.7653 3.00763 3.54554
upperneck -12.5235 2.87506 -12.3768
head -2.64067 1.70054 -4.37775
rclavicle 4.37326e-014 -1.58034e-014
rhumerus 33.7607 29.699 -67.3338
rradius 94.2716
rwrist -9.14221
rhand -15.4007 -28.2642
rfingers 7.12502
rthumb 10.7783 -777.968
lclavicle 4.37326e-014 -1.58034e-014
lhumerus -151.161 210.742 -107.867
lradius 95.311
lwrist 9.33527
lhand -50.519 -49.1042
lfingers 7.12502
lthumb -23.0871 -20.4673
rfemur -82.2165 0.516367 12.6582
rtibia 5.7266
rfoot -1.71803 -12.5258
rtoes 18.4042
lfemur -83.9631 9.01346 -3.80604
ltibia 12.9219
lfoot -12.7564 17.5637
ltoes 46.898
767
root -0.518635 16.9009 7.08304 70.4783 -2.556 -3.25535
lowerback 45.7741 2.72781 -4.9101
upperback 1.1281 2.96685 8.90247
thorax -21.883 2.19266 11.6186
lowerneck -3.92231 3.01621 3.94721
upperneck -13.4655 2.71431 -13.2384
head -3.04172 1.68961 -4.74733
rclavicle -1.74931e-014 -1.07344e-014
rhumerus 34.0517 32.1141 -66.8207
rradius 97.5294
rwrist -6.33131
rhand -16.3788 -28.0227
rfingers 7.12502
rthumb 9.8347 -777.773
lclavicle -1.74931e-014 -1.07344e-014
lhumerus -153.138 209.899 -108.773
lradius 99.3218
lwrist 5.46823
lhand -50.7557 -50.3691
lfingers 7.12502
lthumb -23.3142 -21.7608
rfemur -81.3064 0.672784 13.8966
rtibia 5.79326
rfoot -1.63173 -11.7115
rtoes 17.6266
lfemur -83.2139 8.8724 -3.29864
ltibia 13.0249
lfoot -12.6539 17.58
ltoes 46.5715
768
root -0.531209 16.9129 7.08044 69.7708 -2.10482 -3.46979
lowerback 45.7769 3.65443 -5.10233
upperback 0.81173 4.1452 9.26455
thorax -22.6951 2.74275 11.5271
lowerneck -3.8074 2.55503 2.18903
upperneck -11.7989 2.33232 -12.381
head -2.6525 1.49361 -4.14913
rclavicle -1.27222e-014 2.34566e-014
rhumerus 33.7727 32.9397 -64.1051
rradius 100.264
rwrist -3.42642
rhand -17.6151 -28.3842
rfingers 7.12502
rthumb 8.64174 -778.187
lclavicle -1.27222e-014 2.34566e-014
lhumerus -154.394 210.711 -107.696
lradius 102.587
lwrist 1.85566
lhand -51.1291 -51.8639
lfingers 7.12502
lthumb -23.6724 -23.3014
rfemur -80.4952 0.795094 15.1141
rtibia 5.84189
rfoot -1.59516 -10.9032
rtoes 17.1473
lfemur -82.5369 8.78159 -2.8125
ltibia 13.058
lfoot -12.4969 17.6712
ltoes 46.1363
769
root -0.542152 16.9266 7.07845 69.3731 -1.21883 -3.72424
lowerback 45.5859 4.57239 -4.28694
upperback 0.431928 5.85082 9.58495
thorax -23.5784 3.35735 10.4821
lowerneck -1.8841 1.25487 0.270083
upperneck -12.0085 0.479087 -12.0558
head -3.19807 0.697681 -3.7282
rclavicle 4.77083e-015 2.4581e-014
rhumerus 33.7804 32.6483 -60.7635
rradius 102.059
rwrist -0.715612
rhand -19.4082 -28.7604
rfingers 7.12502
rthumb 6.91115 -778.628
lclavicle 4.77083e-015 2.4581e-014
lhumerus -154.361 212.212 -107.048
lradius 105.222
lwrist -1.17468
lhand -51.3767 -53.0745
lfingers 7.12502
lthumb -23.9099 -24.543
rfemur -79.8583 0.831695 16.7621
rtibia 5.7663
rfoot -1.58209 -10.1306
rtoes 16.794
lfemur -82.2753 8.76362 -1.93579
ltibia 13.1599
lfoot -12.38 17.8032
ltoes 45.7758
770
root -0.549433 16.9412 7.07886 69.2414 0.108917 -4.04011
lowerback 45.4515 4.54417 -3.85784
upperback 0.2274 6.07666 9.607
thorax -23.8338 3.41383 10.1488
lowerneck -0.484027 0.788786 0.655211
upperneck -13.3458 -0.463564 -12.9907
head -3.8919 0.351638 -4.09162
rclavicle -2.0773e-014 5.25102e-014
rhumerus 36.2485 33.7057 -58.6686
rradius 102.357
rwrist 1.35058
rhand -20.8764 -26.6767
rfingers 7.12502
rthumb 5.49371 -776.586
lclavicle -2.0773e-014 5.25102e-014
lhumerus -154.203 210.913 -109.097
lradius 107.391
lwrist -4.15492
lhand -51.7558 -53.6633
lfingers 7.12502
lthumb -24.2734 -25.18
rfemur -79.3484 0.816284 18.858
rtibia 5.5116
rfoot -1.55327 -9.37823
rtoes 16.5856
lfemur -82.3528 8.83574 -0.646661
ltibia 13.2579
lfoot -12.3032 17.9015
ltoes 45.6377
771
root -0.560364 16.9534 7.08444 69.3264 1.81012 -4.45664
lowerback 45.7492 2.26345 -4.40578
upperback 0.712365 2.55383 8.35885
thorax -22.2322 1.98649 10.9283
lowerneck -4.72877 3.55928 4.28861
upperneck -11.9304 3.71997 -12.1488
head -2.39254 2.08172 -4.4172
rclavicle -5.56597e-014 4.69629e-014
rhumerus 44.7737 38.0524 -59.1687
rradius 102.151
rwrist 3.44183
rhand -20.5648 -27.5026
rfingers 7.12502
rthumb 5.79456 -777.403
lclavicle -5.56597e-014 4.69629e-014
lhumerus -154.353 203.699 -117.539
lradius 109.108
lwrist -6.48977
lhand -52.3659 -54.7652
lfingers 7.12502
lthumb -24.8582 -26.3613
rfemur -78.9293 0.871766 21.368
rtibia 5.06991
rfoot -1.39488 -8.63365
rtoes 16.0513
lfemur -82.6277 9.10737 1.0325
ltibia 13.2616
lfoot -12.2614 17.977
ltoes 45.7155
772
root -0.572157 16.9574 7.08949 69.3638 3.06999 -4.7419
lowerback 45.4774 2.33663 -4.2948
upperback 0.719212 2.73329 8.44919
thorax -22.1793 2.04887 10.8708
lowerneck -4.50324 3.33658 4.21413
upperneck -12.4214 3.36528 -12.232
head -2.60331 1.92895 -4.44686
rclavicle 2.38542e-014 5.29761e-014
rhumerus 48.9098 38.0535 -55.9066
rradius 101.283
rwrist 4.74969
rhand -22.2029 -26.1211
rfingers 7.12502
rthumb 4.21284 -776.059
lclavicle 2.38542e-014 5.29761e-014
lhumerus -153.11 201.634 -120.277
lradius 109.535
lwrist -8.90283
lhand -52.9213 -56.5184
lfingers 7.12502
lthumb -25.3903 -28.189
rfemur -78.5614 0.85594 23.3943
rtibia 4.68473
rfoot -1.15361 -7.86454
rtoes 15.3471
lfemur -82.705 9.27371 2.25657
ltibia 13.0678
lfoot -12.1328 18.0866
ltoes 45.565
773
root -0.58022 16.9521 7.09096 69.2117 3.54438 -4.84857
lowerback 45.4858 2.52006 -4.82309
upperback 0.62521 2.61995 8.13859
thorax -22.2637 2.04913 10.8496
lowerneck -3.79562 3.22816 4.62385
upperneck -13.0934 3.15615 -12.3495
head -2.92452 1.84964 -4.58006
rclavicle 7.79236e-014 9.21615e-014
rhumerus 52.7951 37.6581 -53.2595
rradius 100.081
rwrist 6.73322
rhand -23.227 -25.6187
rfingers 7.12502
rthumb 3.2239 -775.574
lclavicle 7.79236e-014 9.21615e-014
lhumerus -151.836 199.322 -123.363
lradius 109.147
lwrist -11.2309
lhand -53.5489 -58.2553
lfingers 7.12502
lthumb -25.9914 -30.0128
rfemur -78.2295 0.740798 24.5725
rtibia 4.52074
rfoot -0.93264 -7.04237
rtoes 15.088
lfemur -82.4309 9.18907 2.68189
ltibia 12.7322
lfoot -11.9258 18.2496
ltoes 45.1192
